<?xml version="1.0" encoding="UTF-8"?>
<!DOCTYPE svg PUBLIC "-//W3C//DTD SVG 1.1//EN" "http://www.w3.org/Graphics/SVG/1.1/DTD/svg11.dtd">
<svg xmlns="http://www.w3.org/2000/svg" version="1.1" width="467px" height="450px" style="shape-rendering:geometricPrecision; text-rendering:geometricPrecision; image-rendering:optimizeQuality; fill-rule:evenodd; clip-rule:evenodd" xmlns:xlink="http://www.w3.org/1999/xlink">
<g><path style="opacity:1" fill="#fefefe" d="M -0.5,-0.5 C 155.167,-0.5 310.833,-0.5 466.5,-0.5C 466.5,149.5 466.5,299.5 466.5,449.5C 310.833,449.5 155.167,449.5 -0.5,449.5C -0.5,299.5 -0.5,149.5 -0.5,-0.5 Z"/></g>
<g><path style="opacity:1" fill="#fdfdfd" d="M 396.5,129.5 C 362.814,104.65 328.981,79.9836 295,55.5C 233.104,75.7987 171.271,96.2987 109.5,117C 108.793,120.071 109.793,122.738 112.5,125C 143.683,148.03 174.683,171.197 205.5,194.5C 186.13,199.604 167.13,205.771 148.5,213C 147.167,213.667 145.833,213.667 144.5,213C 99.4618,179.488 54.4618,145.988 9.5,112.5C 112.094,78.2319 214.594,43.8986 317,9.5C 362.579,42.5746 407.746,76.2413 452.5,110.5C 433.953,117.238 415.286,123.571 396.5,129.5 Z"/></g>
<g><path style="opacity:1" fill="#000000" d="M 396.5,129.5 C 396.833,130.167 397.167,130.833 397.5,131.5C 397.503,190.74 396.836,249.907 395.5,309C 344.739,324.921 294.073,341.921 243.5,360C 231.593,364.305 219.593,367.972 207.5,371C 206.791,312.57 206.791,254.07 207.5,195.5C 207.158,194.662 206.492,194.328 205.5,194.5C 174.683,171.197 143.683,148.03 112.5,125C 109.793,122.738 108.793,120.071 109.5,117C 171.271,96.2987 233.104,75.7987 295,55.5C 328.981,79.9836 362.814,104.65 396.5,129.5 Z"/></g>
<g><path style="opacity:1" fill="#c3c3c3" d="M 287.5,62.5 C 288.5,62.5 289.5,62.5 290.5,62.5C 290.5,118.5 290.5,174.5 290.5,230.5C 264.446,238.296 238.446,246.296 212.5,254.5C 212.667,233.831 212.5,213.164 212,192.5C 179.744,168.622 147.577,144.622 115.5,120.5C 172.985,101.339 230.318,82.0054 287.5,62.5 Z"/></g>
<g><path style="opacity:1" fill="#c3c3c3" d="M 295.5,61.5 C 327.482,85.1421 359.482,108.809 391.5,132.5C 392.531,189.171 392.197,245.838 390.5,302.5C 359.089,279.378 327.589,256.378 296,233.5C 295.5,176.168 295.333,118.834 295.5,61.5 Z"/></g>
<g><path style="opacity:1" fill="#7f7f7f" d="M 456.5,123.5 C 455.518,120.038 455.185,116.371 455.5,112.5C 454.209,112.263 453.209,112.596 452.5,113.5C 434.475,120.26 416.141,126.26 397.5,131.5C 397.167,130.833 396.833,130.167 396.5,129.5C 415.286,123.571 433.953,117.238 452.5,110.5C 407.746,76.2413 362.579,42.5746 317,9.5C 214.594,43.8986 112.094,78.2319 9.5,112.5C 54.4618,145.988 99.4618,179.488 144.5,213C 145.833,213.667 147.167,213.667 148.5,213C 167.13,205.771 186.13,199.604 205.5,194.5C 206.492,194.328 207.158,194.662 207.5,195.5C 187.44,201.852 167.44,208.518 147.5,215.5C 145.779,241.468 145.113,267.468 145.5,293.5C 144.505,281.011 144.171,268.344 144.5,255.5C 144.667,242.163 144.5,228.829 144,215.5C 99,181.833 54,148.167 9,114.5C 8.83027,125.008 8.33027,135.341 7.5,145.5C 6.5054,134.679 6.17207,123.679 6.5,112.5C 8.10019,111.356 9.76685,110.189 11.5,109C 113.097,75.016 214.764,41.1827 316.5,7.5C 363.41,41.2126 409.91,75.5459 456,110.5C 456.499,114.821 456.666,119.154 456.5,123.5 Z"/></g>
<g><path style="opacity:1" fill="#fefefe" d="M 452.5,113.5 C 453.821,116.598 454.488,120.098 454.5,124C 453.581,156.492 453.247,188.992 453.5,221.5C 452.669,258.335 452.003,295.335 451.5,332.5C 451.82,335.898 451.487,339.232 450.5,342.5C 349.036,376.522 247.703,410.522 146.5,444.5C 144.515,428.2 143.848,411.534 144.5,394.5C 144.5,368.5 144.5,342.5 144.5,316.5C 145.492,309.018 145.825,301.352 145.5,293.5C 145.113,267.468 145.779,241.468 147.5,215.5C 167.44,208.518 187.44,201.852 207.5,195.5C 206.791,254.07 206.791,312.57 207.5,371C 219.593,367.972 231.593,364.305 243.5,360C 294.073,341.921 344.739,324.921 395.5,309C 396.836,249.907 397.503,190.74 397.5,131.5C 416.141,126.26 434.475,120.26 452.5,113.5 Z"/></g>
<g><path style="opacity:1" fill="#fefefe" d="M 144.5,255.5 C 143.503,273.326 143.17,291.326 143.5,309.5C 142.399,353.997 141.732,398.664 141.5,443.5C 140.448,443.649 139.448,443.483 138.5,443C 94.3333,410.167 50.1667,377.333 6,344.5C 5.50009,329.837 5.33342,315.17 5.5,300.5C 6.49747,278.006 6.8308,255.339 6.5,232.5C 7.49803,203.671 7.83137,174.671 7.5,145.5C 8.33027,135.341 8.83027,125.008 9,114.5C 54,148.167 99,181.833 144,215.5C 144.5,228.829 144.667,242.163 144.5,255.5 Z"/></g>
<g><path style="opacity:1" fill="#adadad" d="M 452.5,113.5 C 453.209,112.596 454.209,112.263 455.5,112.5C 455.185,116.371 455.518,120.038 456.5,123.5C 456.83,142.008 456.497,160.341 455.5,178.5C 455.666,171.159 455.5,163.826 455,156.5C 454.832,178.337 454.332,200.004 453.5,221.5C 453.247,188.992 453.581,156.492 454.5,124C 454.488,120.098 453.821,116.598 452.5,113.5 Z"/></g>
<g><path style="opacity:1" fill="#939393" d="M 6.5,112.5 C 6.17207,123.679 6.5054,134.679 7.5,145.5C 7.83137,174.671 7.49803,203.671 6.5,232.5C 5.50837,225.352 5.17503,218.019 5.5,210.5C 5.16841,177.662 5.50174,144.996 6.5,112.5 Z"/></g>
<g><path style="opacity:1" fill="#717171" d="M 455.5,178.5 C 455.048,216.165 454.715,253.832 454.5,291.5C 453.502,268.339 453.169,245.006 453.5,221.5C 454.332,200.004 454.832,178.337 455,156.5C 455.5,163.826 455.666,171.159 455.5,178.5 Z"/></g>
<g><path style="opacity:1" fill="#c3c3c3" d="M 287.5,235.5 C 288.873,235.343 290.207,235.51 291.5,236C 322.716,259.391 354.05,282.558 385.5,305.5C 327.843,325.497 270.176,345.497 212.5,365.5C 211.167,330.492 211.333,295.492 213,260.5C 237.951,252.239 262.785,243.905 287.5,235.5 Z"/></g>
<g><path style="opacity:1" fill="#b4b4b4" d="M 5.5,210.5 C 5.17503,218.019 5.50837,225.352 6.5,232.5C 6.8308,255.339 6.49747,278.006 5.5,300.5C 5.8304,280.66 5.49707,260.993 4.5,241.5C 4.17244,230.986 4.50577,220.653 5.5,210.5 Z"/></g>
<g><path style="opacity:1" fill="#8a8a8a" d="M 144.5,255.5 C 144.171,268.344 144.505,281.011 145.5,293.5C 145.825,301.352 145.492,309.018 144.5,316.5C 144.802,313.941 144.468,311.607 143.5,309.5C 143.17,291.326 143.503,273.326 144.5,255.5 Z"/></g>
<g><path style="opacity:1" fill="#a8a8a8" d="M 453.5,221.5 C 453.169,245.006 453.502,268.339 454.5,291.5C 454.83,308.675 454.497,325.675 453.5,342.5C 454.069,338.671 453.402,335.337 451.5,332.5C 452.003,295.335 452.669,258.335 453.5,221.5 Z"/></g>
<g><path style="opacity:1" fill="#d2d2d2" d="M 4.5,258.5 C 4.07974,287.165 3.74641,315.832 3.5,344.5C 2.26941,315.821 2.60275,287.155 4.5,258.5 Z"/></g>
<g><path style="opacity:1" fill="#8e8e8e" d="M 451.5,332.5 C 453.402,335.337 454.069,338.671 453.5,342.5C 350.784,378.239 247.784,413.072 144.5,447C 142.934,447.765 141.601,447.598 140.5,446.5C 141.791,446.737 142.791,446.404 143.5,445.5C 144.791,445.737 145.791,445.404 146.5,444.5C 247.703,410.522 349.036,376.522 450.5,342.5C 451.487,339.232 451.82,335.898 451.5,332.5 Z"/></g>
<g><path style="opacity:1" fill="#cecece" d="M 144.5,394.5 C 143.848,411.534 144.515,428.2 146.5,444.5C 145.791,445.404 144.791,445.737 143.5,445.5C 143.17,428.325 143.503,411.325 144.5,394.5 Z"/></g>
<g><path style="opacity:1" fill="#7a7a7a" d="M 4.5,241.5 C 5.49707,260.993 5.8304,280.66 5.5,300.5C 5.33342,315.17 5.50009,329.837 6,344.5C 50.1667,377.333 94.3333,410.167 138.5,443C 139.448,443.483 140.448,443.649 141.5,443.5C 141.732,398.664 142.399,353.997 143.5,309.5C 144.468,311.607 144.802,313.941 144.5,316.5C 144.5,342.5 144.5,368.5 144.5,394.5C 143.503,411.325 143.17,428.325 143.5,445.5C 142.791,446.404 141.791,446.737 140.5,446.5C 94.6549,412.744 48.9882,378.744 3.5,344.5C 3.74641,315.832 4.07974,287.165 4.5,258.5C 4.5,252.833 4.5,247.167 4.5,241.5 Z"/></g>
</svg>
