<?xml version="1.0" encoding="iso-8859-1"?>
<!-- Uploaded to: SVG Repo, www.svgrepo.com, Generator: SVG Repo Mixer Tools -->
<svg fill="#000000" height="800px" width="800px" version="1.1" id="Layer_1" xmlns="http://www.w3.org/2000/svg" xmlns:xlink="http://www.w3.org/1999/xlink" 
	 viewBox="0 0 511.997 511.997" xml:space="preserve">
<g>
	<g>
		<path d="M502,61.056H322.053c-48.746,0-118.185,52.844-162.832,98.091c-61.402,62.222-97.691,126.513-97.092,171.83v169.95
			c0,5.518,4.479,9.997,9.997,9.997H502c5.518,0,9.997-4.479,9.997-9.997V71.053C511.997,65.534,507.518,61.056,502,61.056z
			 M492.003,490.93H82.123V330.847c-0.53-39.618,34.47-100.031,91.333-157.664C227.83,118.079,287.553,81.05,322.053,81.05h169.95
			V490.93z"/>
	</g>
</g>
<g>
	<g>
		<path d="M242.076,1.073c-45.257,0-107.788,47.026-151.216,91.033C33.397,150.339-0.563,210.572,0.007,253.229
			c0.07,5.478,4.539,9.867,9.997,9.867c0.05,0,0.09,0,0.14,0c5.518-0.07,9.937-4.609,9.867-10.127
			c-0.49-36.869,32.111-93.123,85.095-146.817c50.205-50.895,105.259-85.085,136.97-85.085c5.518,0,9.997-4.479,9.997-9.997
			C252.073,5.552,247.595,1.073,242.076,1.073z"/>
	</g>
</g>
</svg>