<?xml version="1.0" encoding="utf-8"?><!-- Uploaded to: SVG Repo, www.svgrepo.com, Generator: SVG Repo Mixer Tools -->
<svg width="800px" height="800px" viewBox="0 0 24 24" fill="none" xmlns="http://www.w3.org/2000/svg">
<path d="M12 21.75C10.0716 21.75 8.18657 21.1782 6.58319 20.1068C4.97981 19.0355 3.73013 17.5127 2.99218 15.7312C2.25422 13.9496 2.06114 11.9892 2.43734 10.0979C2.81355 8.20656 3.74215 6.46928 5.10571 5.10571C6.46927 3.74215 8.20655 2.81355 10.0979 2.43735C11.9892 2.06114 13.9496 2.25422 15.7312 2.99218C17.5127 3.73013 19.0355 4.97982 20.1068 6.58319C21.1782 8.18657 21.75 10.0716 21.75 12C21.7474 14.5851 20.7193 17.0635 18.8914 18.8914C17.0635 20.7193 14.585 21.7474 12 21.75ZM12 3.75C10.3683 3.75 8.77325 4.23386 7.41655 5.14038C6.05984 6.0469 5.00242 7.33538 4.37799 8.84287C3.75357 10.3504 3.59019 12.0092 3.90852 13.6095C4.22685 15.2098 5.01259 16.6799 6.16637 17.8336C7.32015 18.9874 8.79016 19.7732 10.3905 20.0915C11.9908 20.4098 13.6496 20.2464 15.1571 19.622C16.6646 18.9976 17.9531 17.9402 18.8596 16.5835C19.7661 15.2268 20.25 13.6317 20.25 12C20.2474 9.81278 19.3773 7.7159 17.8307 6.1693C16.2841 4.62269 14.1872 3.75265 12 3.75Z" fill="#000000"/>
<path d="M12 16.07C11.195 16.07 10.4081 15.8313 9.73883 15.3841C9.06952 14.9369 8.54786 14.3012 8.23981 13.5575C7.93176 12.8138 7.85116 11.9955 8.00821 11.206C8.16525 10.4165 8.55288 9.69128 9.12208 9.12209C9.69128 8.55289 10.4165 8.16526 11.206 8.00821C11.9955 7.85117 12.8138 7.93177 13.5575 8.23982C14.3012 8.54787 14.9369 9.06953 15.3841 9.73884C15.8313 10.4081 16.07 11.195 16.07 12C16.07 13.0794 15.6412 14.1147 14.8779 14.8779C14.1147 15.6412 13.0794 16.07 12 16.07ZM12 9.43001C11.4917 9.43001 10.9948 9.58074 10.5722 9.86313C10.1496 10.1455 9.82015 10.5469 9.62563 11.0165C9.43111 11.4861 9.38022 12.0029 9.47938 12.5014C9.57855 12.9999 9.82332 13.4579 10.1827 13.8173C10.5422 14.1767 11.0001 14.4215 11.4986 14.5206C11.9972 14.6198 12.5139 14.5689 12.9835 14.3744C13.4531 14.1799 13.8545 13.8505 14.1369 13.4278C14.4193 13.0052 14.57 12.5083 14.57 12C14.57 11.3184 14.2992 10.6647 13.8173 10.1827C13.3353 9.70078 12.6816 9.43001 12 9.43001Z" fill="#000000"/>
</svg>