<?xml version="1.0" encoding="iso-8859-1"?>
<!-- Uploaded to: SVG Repo, www.svgrepo.com, Generator: SVG Repo Mixer Tools -->
<svg fill="#000000" height="800px" width="800px" version="1.1" id="Layer_1" xmlns="http://www.w3.org/2000/svg" xmlns:xlink="http://www.w3.org/1999/xlink" 
	 viewBox="0 0 512 512" xml:space="preserve">
<g>
	<g>
		<g>
			<path d="M106.667,234.667v42.667c0,11.776,9.536,21.333,21.333,21.333c11.797,0,21.333-9.557,21.333-21.333v-42.667
				c0-11.776-9.536-21.333-21.333-21.333C116.203,213.333,106.667,222.891,106.667,234.667z"/>
			<path d="M176.915,326.248l-28.951,28.951c-3.027-8.091-10.802-13.866-19.964-13.866c-9.162,0-16.937,5.775-19.964,13.866
				l-28.951-28.951c-8.331-8.331-21.839-8.331-30.17,0c-8.331,8.331-8.331,21.839,0,30.17l34.491,34.491
				C71.728,398.523,64,411.691,64,426.667v42.667C64,492.891,83.109,512,106.667,512h42.667C172.891,512,192,492.891,192,469.333
				v-42.667c0-14.975-7.728-28.144-19.406-35.758l34.491-34.491c8.331-8.331,8.331-21.839,0-30.17
				C198.754,317.917,185.246,317.917,176.915,326.248z M149.333,469.333h-42.667v-42.667h42.667V469.333z"/>
			<path d="M463.085,326.248c-8.331-8.331-21.839-8.331-30.17,0l-28.951,28.951c-3.027-8.091-10.802-13.866-19.964-13.866
				c-9.162,0-16.937,5.775-19.964,13.866l-28.951-28.951c-8.331-8.331-21.839-8.331-30.17,0c-8.331,8.331-8.331,21.839,0,30.17
				l34.491,34.491C327.728,398.523,320,411.691,320,426.667v42.667C320,492.891,339.109,512,362.667,512h42.667
				C428.891,512,448,492.891,448,469.333v-42.667c0-14.975-7.728-28.144-19.406-35.758l34.491-34.491
				C471.416,348.087,471.416,334.58,463.085,326.248z M405.333,469.333h-42.667v-42.667h42.667V469.333z"/>
			<path d="M245.845,212.864c-11.861-1.109-23.36-4.181-34.133-9.109c-10.773-4.949-23.381-0.171-28.267,10.517
				c-4.907,10.731-0.192,23.381,10.517,28.288c15.125,6.912,31.253,11.221,47.893,12.779c0.683,0.064,1.344,0.107,2.027,0.107
				c10.88,0,20.181-8.299,21.227-19.349C266.197,224.384,257.579,213.973,245.845,212.864z"/>
			<path d="M313.685,272.917c10.027,6.443,18.837,14.443,26.197,23.808c4.203,5.355,10.453,8.149,16.789,8.149
				c4.608,0,9.237-1.493,13.163-4.565c9.28-7.296,10.859-20.715,3.584-29.973c-10.304-13.077-22.635-24.299-36.651-33.301
				c-9.877-6.379-23.125-3.499-29.483,6.4C300.907,253.333,303.765,266.539,313.685,272.917z"/>
			<path d="M106.667,128v21.333c0,9.081,5.681,16.822,13.686,19.899c0.919,1.996,1.881,3.976,2.89,5.936
				c3.797,7.339,11.264,11.541,18.987,11.541c3.285,0,6.656-0.768,9.771-2.368c10.453-5.419,14.571-18.283,9.173-28.757
				c-4.526-8.751-7.756-18.02-9.684-27.639c22.557-1.124,40.51-19.777,40.51-42.612V42.667C192,19.109,172.891,0,149.333,0h-42.667
				C83.109,0,64,19.109,64,42.667v42.667C64,108.891,83.109,128,106.667,128z M106.667,42.667h42.667v42.667h-42.667V42.667z"/>
		</g>
	</g>
</g>
</svg>